<?xml version="1.0" encoding="utf-8"?>
<!-- Generator: Adobe Illustrator 27.2.0, SVG Export Plug-In . SVG Version: 6.00 Build 0)  -->
<svg version="1.1" id="Layer_1" xmlns="http://www.w3.org/2000/svg" xmlns:xlink="http://www.w3.org/1999/xlink" x="0px" y="0px"
	 viewBox="0 0 522 103.8" style="enable-background:new 0 0 522 103.8;" xml:space="preserve">
<style type="text/css">
	.st0{fill:#0066AC;}
	.st1{fill:#FFFFFF;}
	.st2{font-family:'AvenirNext-Bold';}
	.st3{font-size:72px;}
</style>
<path class="st0" d="M82.9,88.7c-0.2-0.6-0.5-1.1-1-1.6c-0.5-0.4-1.1-0.7-1.7-0.7C72.9,85.6,66,82.2,61,76.8
	c-5-5.4-7.9-12.5-8.1-19.9s2.2-14.6,6.9-20.3c4.7-5.7,11.3-9.5,18.6-10.7c0.6-0.1,1.2-0.4,1.6-0.8s0.7-1,0.9-1.6
	c0.1-0.6,0-1.2-0.2-1.8c-0.3-0.6-0.7-1-1.2-1.4c-5.1-3.1-10.9-5.1-16.8-5.9c-6-0.8-12-0.3-17.8,1.5c-5.8,1.7-11.1,4.7-15.6,8.6
	c-4.6,3.9-8.2,8.8-10.8,14.2c-2.5,5.5-3.9,11.4-4,17.4s1.1,12,3.4,17.5c2.4,5.5,5.9,10.5,10.3,14.6s9.6,7.2,15.3,9.1
	c6.3,2.2,13.1,2.8,19.7,1.9s12.9-3.4,18.4-7.3c0.5-0.4,0.9-0.9,1.1-1.4C83,89.9,83.1,89.3,82.9,88.7z"/>
<text transform="matrix(1 0 0 1 62.4197 79.9648)" class="st1 st2 st3">Screen Saver</text>
</svg>
